<svg width="162" height="210" viewBox="0 0 162 210" fill="none" xmlns="http://www.w3.org/2000/svg">
<path d="M81.1895 0.00488281C82.1323 0.0568012 83.0296 0.498027 83.1377 1.33105C86.2121 24.8551 93.0623 62.3625 106.57 76.7402C118.647 89.5903 148.724 99.5775 160.887 103.219C162.371 103.666 162.371 105.765 160.887 106.212C148.724 109.858 118.647 119.839 106.575 132.689C93.0622 147.067 86.2122 184.58 83.1426 208.1C83.0272 208.988 82.0136 209.43 81.0049 209.43V147.029C81.0049 139.189 83.873 131.62 89.0684 125.748L96.7227 117.097H96.7178C103.669 109.238 103.41 96.6136 95.9062 89.2734C91.8901 85.3457 86.7241 83.293 81.5049 83.1162L81 83.1055C75.6102 83.1631 70.2394 85.2191 66.0938 89.2734C58.5904 96.6136 58.3312 109.238 65.2822 117.097H65.2773L72.9316 125.748C78.127 131.62 80.9951 139.189 80.9951 147.029V209.43C79.9864 209.43 78.9729 208.988 78.8574 208.1C75.7878 184.58 68.9378 147.067 55.4248 132.689C43.3529 119.839 13.2764 109.857 1.11328 106.211C-0.370967 105.764 -0.371011 103.666 1.11328 103.219C13.2764 99.5775 43.353 89.5903 55.4297 76.7402C68.9378 62.3626 75.7879 24.8551 78.8623 1.33105C78.9776 0.442357 79.9912 0 81 0L81.1895 0.00488281Z" fill="#1a1a2e"/>
<path d="M65.2821 117.097C58.331 109.238 58.5904 96.6134 66.0939 89.2733C72.6419 82.8694 81 75.732 81 66.573V0C79.9912 0 78.9776 0.441947 78.8623 1.33064C75.7879 24.8547 68.9377 62.3626 55.4295 76.7402C43.3528 89.5903 13.2764 99.5774 1.11327 103.219C-0.371091 103.665 -0.371091 105.765 1.11327 106.211C13.2764 109.857 43.3528 119.84 55.4247 132.69C68.9377 147.067 75.7879 184.58 78.8575 208.099C78.9728 208.988 79.9864 209.43 80.9952 209.43V147.029C80.9952 139.189 78.1272 131.62 72.9318 125.748L65.2772 117.097H65.2821Z" fill="#2c3e5a"/>
</svg>
